<svg xmlns="http://www.w3.org/2000/svg" x="0px" y="0px"
width="50" height="50"
viewBox="0 0 172 172"
style=" fill:#000000;"><g fill="none" fill-rule="nonzero" stroke="none" stroke-width="1" stroke-linecap="butt" stroke-linejoin="miter" stroke-miterlimit="10" stroke-dasharray="" stroke-dashoffset="0" font-family="none" font-weight="none" font-size="none" text-anchor="none" style="mix-blend-mode: normal"><path d="M0,172v-172h172v172z" fill="none"></path><g fill="#ffffff"><path d="M154.74625,23.9725c-1.8275,0.05375 -3.5475,0.80625 -4.81062,2.12313l-63.93563,63.93562l-63.93562,-63.93562c-1.30344,-1.33031 -3.07719,-2.08281 -4.945,-2.08281c-2.795,0 -5.30781,1.70656 -6.35594,4.3c-1.06156,2.59344 -0.43,5.56312 1.57219,7.51156l73.66437,73.66437l73.66438,-73.66437c2.0425,-1.96188 2.6875,-4.98531 1.58562,-7.60563c-1.08844,-2.62031 -3.66844,-4.3 -6.50375,-4.24625zM154.74625,68.6925c-1.8275,0.05375 -3.5475,0.80625 -4.81062,2.12313l-63.93563,63.93562l-63.93562,-63.93562c-1.30344,-1.33031 -3.07719,-2.08281 -4.945,-2.08281c-2.795,0 -5.30781,1.70656 -6.35594,4.3c-1.06156,2.59344 -0.43,5.56312 1.57219,7.51156l73.66437,73.66437l73.66438,-73.66437c2.0425,-1.96188 2.6875,-4.98531 1.58562,-7.60563c-1.08844,-2.62031 -3.66844,-4.3 -6.50375,-4.24625z"></path></g></g></svg>