<?xml version="1.0" standalone="no"?>
<!DOCTYPE svg PUBLIC "-//W3C//DTD SVG 20010904//EN"
 "http://www.w3.org/TR/2001/REC-SVG-20010904/DTD/svg10.dtd">
<svg version="1.0" xmlns="http://www.w3.org/2000/svg"
 width="570.000000pt" height="456.000000pt" viewBox="0 0 570.000000 456.000000"
 preserveAspectRatio="xMidYMid meet">
<metadata>
Created by potrace 1.16, written by Peter Selinger 2001-2019
</metadata>
<g transform="translate(0.000000,456.000000) scale(0.100000,-0.100000)"
fill="#000000" stroke="none">
<path d="M2215 4395 c-5 -2 -122 -6 -260 -8 -137 -3 -258 -8 -268 -12 -47 -20
-64 -131 -26 -179 l20 -26 279 0 c153 0 285 3 294 6 23 9 19 41 -6 55 -30 16
-38 28 -38 62 0 26 24 59 51 70 11 5 10 9 -5 21 -20 16 -23 17 -41 11z"/>
<path d="M2732 4388 c-16 -4 -35 -19 -42 -33 -13 -25 -13 -25 -32 -5 -17 18
-32 20 -187 20 -138 0 -171 -3 -181 -15 -7 -8 -18 -15 -25 -15 -6 0 -20 -9
-30 -20 -21 -23 -14 -66 14 -75 10 -3 26 -14 36 -25 13 -14 31 -20 63 -20 l45
0 -6 -52 c-26 -245 -58 -527 -63 -547 -4 -20 -9 -23 -37 -18 -18 3 -44 3 -59
0 -22 -4 -27 -11 -31 -46 -3 -33 0 -46 15 -59 22 -20 54 -24 60 -8 2 7 37 6
106 -2 98 -11 102 -13 102 -36 0 -17 5 -23 17 -20 24 4 37 78 17 94 -8 6 -14
19 -14 28 0 9 -7 16 -15 16 -8 0 -15 9 -15 19 0 28 59 572 65 599 5 19 12 22
50 22 31 0 51 6 65 20 19 19 20 19 30 1 27 -52 20 -51 351 -51 l310 0 24 26
c45 48 45 141 2 182 -20 19 -38 23 -111 25 -99 4 -118 -4 -136 -59 -13 -39 -6
-109 13 -134 7 -9 2 -5 -10 8 -31 32 -32 117 -2 156 11 14 19 26 17 27 -28 5
-386 2 -406 -3z m-216 -215 c-2 -10 -7 -49 -11 -88 -4 -38 -20 -182 -36 -320
-16 -137 -29 -258 -29 -267 0 -10 -7 -18 -16 -18 -13 0 -14 9 -10 53 16 142
66 629 66 642 0 8 9 15 21 15 15 0 19 -5 15 -17z"/>
<path d="M2285 3456 c-2 -6 -22 -177 -45 -381 -22 -203 -52 -467 -65 -585 -14
-118 -37 -321 -51 -450 -15 -129 -31 -238 -37 -242 -6 -3 -11 -39 -11 -80 l-1
-73 55 -12 c64 -13 167 -16 173 -5 3 4 8 40 12 80 7 69 6 72 -14 72 -17 0 -20
5 -17 23 3 12 10 69 16 127 6 58 17 161 25 230 19 157 134 1214 138 1255 l2
30 -89 10 c-62 8 -89 8 -91 1z"/>
<path d="M2060 1601 c0 -20 -5 -31 -14 -31 -22 0 -29 -33 -11 -46 23 -17 142
-36 201 -32 42 3 49 6 52 26 2 12 -1 22 -7 22 -6 0 -11 15 -11 34 l0 33 -82 6
c-46 3 -93 8 -105 12 -21 7 -23 4 -23 -24z"/>
<path d="M2040 1484 c0 -11 -13 -126 -29 -257 -21 -175 -33 -242 -45 -256 -9
-9 -16 -27 -16 -38 0 -12 -6 -23 -14 -26 -16 -7 -36 -67 -36 -111 0 -16 -11
-41 -25 -58 -122 -144 -126 -435 -9 -538 96 -84 233 -25 309 134 39 81 60 187
52 256 -3 27 0 66 7 91 7 24 16 70 20 101 6 49 4 62 -13 87 -11 15 -18 30 -16
33 3 2 1 18 -4 35 -6 20 -1 103 15 249 28 262 29 295 10 288 -14 -5 -165 12
-192 23 -9 3 -14 -1 -14 -13z m68 -620 c57 -2 108 -7 114 -10 14 -9 3 -134
-16 -177 -7 -18 -29 -55 -48 -83 -19 -28 -40 -72 -48 -98 -13 -49 -33 -67 -52
-48 -7 7 -4 29 11 73 13 40 21 89 21 133 1 39 5 91 10 116 5 27 5 49 -1 54
-15 16 -102 11 -137 -8 l-33 -17 7 28 c11 54 13 56 42 48 15 -3 73 -8 130 -11z
m-38 -104 c0 -5 -7 -10 -15 -10 -28 0 -92 -69 -118 -127 -79 -176 -40 -393 70
-393 40 0 83 27 114 73 l22 32 -30 -28 c-60 -56 -129 -41 -170 36 -28 52 -23
178 8 247 27 58 81 120 104 120 9 0 5 -9 -10 -25 -16 -15 -25 -36 -25 -57 l-1
-33 -14 25 -14 25 -21 -48 c-21 -46 -21 -50 -4 -68 9 -10 14 -20 11 -20 -4 -1
-13 -2 -19 -3 -8 -1 -14 -21 -16 -54 -3 -50 -2 -53 17 -47 18 5 19 4 8 -24 -9
-23 -8 -36 3 -56 17 -33 32 -28 43 16 l10 34 14 -42 c8 -24 19 -43 23 -43 5 0
21 10 35 23 26 22 26 23 10 60 l-16 38 34 -6 c32 -6 35 -4 46 26 16 45 14 79
-4 79 -22 0 -18 18 5 25 14 4 20 15 20 35 0 16 5 32 11 36 9 5 10 -16 7 -77
-8 -138 -56 -241 -138 -297 -38 -25 -70 -28 -108 -8 -104 54 -110 326 -9 458
45 59 117 107 117 78z"/>
<path d="M2279 1423 c0 -5 -6 -66 -13 -138 -13 -128 -13 -131 10 -188 13 -32
42 -86 65 -120 45 -66 88 -155 135 -279 19 -50 34 -78 44 -78 31 1 183 39 193
49 5 5 10 47 11 93 1 71 -3 91 -25 133 -27 53 -83 94 -129 95 -19 0 -36 16
-76 73 -63 88 -134 220 -164 305 -13 35 -29 62 -36 62 -8 0 -14 -3 -15 -7z"/>
<path d="M3869 1176 c-55 -20 -97 -53 -143 -115 -50 -68 -81 -134 -73 -155 4
-10 18 -16 35 -16 16 0 43 -3 59 -6 27 -5 33 0 83 65 83 109 146 143 218 118
57 -21 -14 84 -75 109 -39 17 -57 17 -104 0z"/>
<path d="M2238 1043 c-3 -89 3 -117 50 -223 39 -89 47 -118 51 -190 l6 -85 65
-16 c47 -12 67 -13 72 -5 15 23 7 87 -18 143 -14 32 -41 95 -59 140 -18 45
-53 112 -78 150 -24 37 -52 83 -61 101 -9 17 -19 32 -21 32 -3 0 -6 -21 -7
-47z"/>
<path d="M3955 1051 c-17 -7 -16 -8 9 -15 42 -10 70 -81 64 -161 -6 -71 -41
-160 -59 -149 -7 4 -10 3 -7 -2 4 -5 -14 -10 -37 -12 -38 -2 -46 1 -61 23 -18
27 -34 33 -34 11 0 -24 41 -66 64 -66 12 0 32 7 44 16 12 8 22 11 22 5 0 -15
-35 -31 -69 -31 -30 0 -71 38 -71 67 0 9 -10 13 -30 11 -39 -3 -39 -27 0 -71
38 -44 73 -51 126 -26 48 22 86 73 110 143 23 67 15 180 -15 230 -24 38 -25
39 -56 27z"/>
<path d="M3609 946 c-2 -3 -189 -39 -414 -81 -226 -42 -417 -78 -426 -81 -12
-3 -18 -21 -23 -62 -4 -31 -10 -62 -14 -68 -4 -7 -54 -21 -111 -33 -58 -12
-105 -22 -107 -24 -1 -1 -4 -24 -5 -52 -4 -45 -2 -50 16 -50 17 0 20 8 23 45
l3 45 222 0 222 0 230 52 c225 51 610 136 690 152 22 5 49 12 59 16 14 6 17 5
12 -3 -4 -7 -3 -12 3 -12 5 0 10 8 10 18 0 9 3 29 6 44 6 21 2 29 -17 42 -23
15 -30 14 -109 -10 -80 -24 -88 -25 -167 -14 -88 13 -102 23 -82 59 8 17 8 21
-3 21 -8 0 -16 -2 -18 -4z m-4 -91 c0 -26 -76 -57 -250 -101 -204 -51 -579
-103 -600 -83 -2 3 55 10 127 17 229 22 553 90 674 142 44 19 47 23 30 32 -14
8 -57 8 -154 -1 -201 -18 -365 -50 -652 -127 -18 -5 -22 -4 -15 4 12 13 202
63 348 92 171 34 294 48 397 47 88 -2 95 -4 95 -22z"/>
</g>
</svg>
