<?xml version="1.0" encoding="utf-8"?>
<!-- Generator: Adobe Illustrator 18.1.1, SVG Export Plug-In . SVG Version: 6.00 Build 0)  -->
<!DOCTYPE svg PUBLIC "-//W3C//DTD SVG 1.0//EN" "http://www.w3.org/TR/2001/REC-SVG-20010904/DTD/svg10.dtd" [
	<!ENTITY ns_extend "http://ns.adobe.com/Extensibility/1.0/">
	<!ENTITY ns_ai "http://ns.adobe.com/AdobeIllustrator/10.0/">
	<!ENTITY ns_graphs "http://ns.adobe.com/Graphs/1.0/">
	<!ENTITY ns_vars "http://ns.adobe.com/Variables/1.0/">
	<!ENTITY ns_imrep "http://ns.adobe.com/ImageReplacement/1.0/">
	<!ENTITY ns_sfw "http://ns.adobe.com/SaveForWeb/1.0/">
	<!ENTITY ns_custom "http://ns.adobe.com/GenericCustomNamespace/1.0/">
	<!ENTITY ns_adobe_xpath "http://ns.adobe.com/XPath/1.0/">
   ]>
<svg
   xmlns:dc="http://purl.org/dc/elements/1.1/"
   xmlns:cc="http://creativecommons.org/ns#"
   xmlns:rdf="http://www.w3.org/1999/02/22-rdf-syntax-ns#"
   xmlns:svg="http://www.w3.org/2000/svg"
   xmlns="http://www.w3.org/2000/svg"
   xmlns:x="&ns_extend;" xmlns:i="&ns_ai;"
   xmlns:graph="&ns_graphs;"
   xmlns:xlink="http://www.w3.org/1999/xlink"
   id="Слой_1"
   version="1.0"
   x="0px" y="0px"
   viewBox="0 -4 504 504" enable-background="new -155.5001984 61.8872681 25 42" xml:space="preserve">
   
  <metadata
     id="metadata56">
    <rdf:RDF>
      <cc:Work
         rdf:about="">
        <dc:format>image/svg+xml</dc:format>
        <dc:type
           rdf:resource="http://purl.org/dc/dcmitype/StillImage" />
      </cc:Work>
    </rdf:RDF>
  </metadata>
  
  <defs
     id="defs54" />
  <g
     id="g18"
     fill="#e6e9ed">
    <path
       id="path2"
       d="m43.441406 483.992188c-2.210937 0-4-1.792969-4-4v-55.984376c0-2.207031 1.789063-4 4-4 2.207032 0 4 1.792969 4 4v55.984376c0 2.207031-1.792968 4-4 4zm0 0" />
    <path
       id="path4"
       d="m66.0625 474.625c-1.558594 1.558594-4.09375 1.558594-5.65625 0l-39.589844-39.59375c-1.558594-1.558594-1.558594-4.09375 0-5.65625 1.558594-1.558594 4.09375-1.558594 5.65625 0l39.589844 39.59375c1.5625 1.558594 1.5625 4.09375 0 5.65625zm0 0" />
    <path
       id="path6"
       d="m75.441406 452c0 2.207031-1.792968 4-4 4h-55.992187c-2.210938 0-4-1.792969-4-4-.007813-2.199219 1.78125-4 3.992187-4h56c2.199219 0 4 1.800781 4 4zm0 0" />
    <path
       id="path8"
       d="m66.0625 429.375c1.570312 1.5625 1.5625 4.097656 0 5.65625l-39.589844 39.59375c-1.5625 1.558594-4.089844 1.558594-5.65625 0-1.558594-1.546875-1.558594-4.097656 0-5.65625l39.589844-39.59375c1.5625-1.558594 4.105469-1.558594 5.65625 0zm0 0" />
    <path
       id="path10"
       d="m488 444h-80c-2.207031 0-4-1.792969-4-4s1.792969-4 4-4h80c2.207031 0 4 1.792969 4 4s-1.792969 4-4 4zm0 0" />
    <path
       id="path12"
       d="m419.710938 472.28125c-1.023438 0-2.046876-.394531-2.832032-1.167969-1.558594-1.5625-1.558594-4.097656 0-5.65625l56.570313-56.5625c1.558593-1.558593 4.09375-1.558593 5.65625 0 1.558593 1.5625 1.558593 4.097657 0 5.65625l-56.570313 56.5625c-.773437.773438-1.800781 1.167969-2.824218 1.167969zm0 0" />
    <path
       id="path14"
       d="m447.992188 484c-2.207032 0-4-1.792969-4-4l.007812-79.992188c0-2.207031 1.792969-4 4-4s4 1.792969 4 4l-.007812 79.992188c0 2.207031-1.792969 4-4 4zm0 0" />
    <path
       id="path16"
       d="m476.273438 472.296875c-1.027344 0-2.050782-.394531-2.832032-1.167969l-56.546875-56.578125c-1.558593-1.558593-1.558593-4.09375 0-5.65625 1.5625-1.558593 4.097657-1.558593 5.65625 0l56.546875 56.578125c1.558594 1.558594 1.558594 4.09375 0 5.65625-.777344.773438-1.800781 1.167969-2.824218 1.167969zm0 0" />
       
       <polygon fill="#222222" points="-134.8730316,61.8872681 -135.6862183,62.9711876 -136.497406,62.9711876
			-137.3105927,62.9711876 -138.1227722,62.9711876 -138.9359589,62.9711876 -139.7491455,62.9711876 -140.5613403,62.9711876 
			-141.374527,62.9711876 -142.1877136,62.9711876 -142.9998932,62.9711876 -143.8130798,62.9711876 -144.6252747,62.9711876 
			-145.4384613,62.9711876 -146.2506409,62.9711876 -147.0638275,62.9711876 -147.8770142,62.9711876 -148.689209,62.9711876 
			-149.5023956,62.9711876 -150.3145905,62.9711876 -151.1277771,61.8872681 -151.9409637,62.9711876 -152.3105927,68.2898636 
			-133.6902008,68.2898636 -134.059845,62.9711876 		"/>
		<rect x="-151.9607391" y="71.7052689" fill="#222222" width="17.9220791" height="26.5964031"/>
		<rect x="-144.2524414" y="75.9809952" fill="#FFFFFF" width="2.5044956" height="27.5744247"/>
		<path d="M-141.3939972,103.9109268h-3.2135773V75.6276855h3.2135773V103.9109268z M-143.8993073,103.202652h1.7970428V76.3359604
			h-1.7970428V103.202652z"/>
		<rect x="-148.3223724" y="69.8651123" fill="#FFFFFF" width="10.6443558" height="9.87113"/>
		<path d="M-137.3238373,80.0905075h-11.3529053V69.5107574h11.3529053V80.0905075z M-147.9684753,79.3822327h9.9363556v-9.1632004
			h-9.9363556V79.3822327z"/>
  </g>

  
  <path
     id="path20"
     fill="#656d78"
     d="m448 384c-30.929688 0-56 25.070312-56 56s25.070312 56 56 56 56-25.070312 56-56-25.070312-56-56-56zm0 96c-22.089844 0-40-17.910156-40-40s17.910156-40 40-40 40 17.910156 40 40-17.910156 40-40 40zm0 0" />
  <path
     id="path22"
     fill="#656d78"
     d="m433.128906 328.640625c0 2.199219-1.800781 4-4 4h-17.128906c-2.199219 0-4-1.800781-4-4v-28.640625c0-2.199219 1.800781-4 4-4h17.128906c2.199219 0 4 1.800781 4 4zm0 0" />
  <path
     id="path24"
     fill="#e6e9ed"
     d="m430.183594 320.945312-14.976563 3.132813c-.773437.160156-78.015625 16.546875-90.199219 99.328125-.414062 2.722656-.742187 5.433594-1.007812 8.59375 0 6.617188 5.382812 12 12 12 5.175781 0 9.601562-3.34375 11.238281-8h.410157l.40625-3.542969c.304687-2.695312.609374-5.242187 1.097656-7.792969 10.609375-63.023437 68.351562-76.527343 70.800781-77.070312l13.007813-2.761719zm0 0" />
  <path
     id="path26"
     fill="#37bc9b"
     d="m448 384c16.320312 0 30.96875 7.023438 41.199219 18.167969l9.703125-13.089844c-13.023438-13.023437-31.023438-21.078125-50.902344-21.078125-39.777344 0-72 32.222656-72 72h16c0-30.929688 25.070312-56 56-56zm0 0" />
  <path
     id="path28"
     fill="#656d78"
     d="m44 408c-24.296875 0-44 19.703125-44 44s19.703125 44 44 44 44-19.703125 44-44-19.703125-44-44-44zm.558594 71.992188c-15.453125.3125-28.246094-11.976563-28.550782-27.433594-.3125-15.453125 11.976563-28.246094 27.433594-28.550782 15.453125-.3125 28.246094 11.976563 28.550782 27.433594.3125 15.445313-11.976563 28.246094-27.433594 28.550782zm0 0" />
  <path
     id="path30"
     fill="#48cfad"
     d="m12.878906 420.886719c7.960938-7.957031 18.96875-12.886719 31.121094-12.886719 22.945312 0 41.777344 17.574219 43.800781 40h16c-2.066406-31.265625-28.007812-56-59.800781-56-16.59375 0-31.609375 6.734375-42.472656 17.617188zm0 0" />
  <path
     id="path32"
     fill="#37bc9b"
     d="m12.878906 420.886719c7.960938-7.957031 18.96875-12.886719 31.121094-12.886719 22.945312 0 41.777344 17.574219 43.800781 40h16c-2.066406-31.265625-28.007812-56-59.800781-56-16.59375 0-31.609375 6.734375-42.472656 17.617188zm0 0" />
  <path
     id="path34"
     fill="#e6e9ed"
     d="m409.328125 32.9375-20.375 3.839844 17.734375 151.222656h22zm0 0" />
  <path
     id="path36"
     fill="#48cfad"
     d="m427.6875 180h-21.933594l30.246094 260c0 6.617188 5.382812 12 12 12s12-5.382812 11.96875-12.496094zm0 0" />
  <path
     id="path38"
     fill="#656d78"
     d="m429.785156 188h-23.777344c-2.207031 0-4-1.792969-4-4s1.792969-4 4-4h23.777344c2.207032 0 4 1.792969 4 4s-1.792968 4-4 4zm0 0" />
  <path
     id="path40"
     fill="#656d78"
     d="m396.078125 0c11.121094 0 20.160156 9.039062 20.160156 20.167969 0 11.121093-9.039062 20.078125-20.167969 20.078125-11.039062 0-20.078124-8.957032-20.078124-20.078125.007812-11.128907 9.046874-20.167969 20.085937-20.167969zm0 0" />
  <path
     id="path42"
     fill="#545c66"
     d="m396.367188 24.128906c-2.207032 0-4.039063-1.792968-4.039063-4 0-2.207031 1.75-4 3.953125-4h.085938c2.199218 0 4 1.792969 4 4 0 2.207032-1.800782 4-4 4zm0 0" />
  <path
     id="path44"
     fill="#656d78"
     d="m360 452.007812c0 2.199219-1.800781 4-4 4h-40c-2.199219 0-4-1.800781-4-4v-24.007812c0-2.199219 1.800781-4 4-4h40c2.199219 0 4 1.800781 4 4zm0 0" />
  <path
     id="path46"
     fill="#48cfad"
     d="m44 444h316v24h-296l-23.519531-8.832031zm0 0" />
  <path
     id="path48"
     fill="#48cfad"
     d="m52 452c0 4.417969-3.582031 8-8 8s-8-3.582031-8-8 3.582031-8 8-8 8 3.582031 8 8zm0 0" />
</svg>
