<?xml version="1.0" standalone="no"?>
<!DOCTYPE svg PUBLIC "-//W3C//DTD SVG 20010904//EN"
 "http://www.w3.org/TR/2001/REC-SVG-20010904/DTD/svg10.dtd">
<svg version="1.0" xmlns="http://www.w3.org/2000/svg"
 width="840.000000pt" height="824.000000pt" viewBox="0 0 840.000000 824.000000"
 preserveAspectRatio="xMidYMid meet">
<metadata>
Created by potrace 1.16, written by Peter Selinger 2001-2019
</metadata>
<g transform="translate(0.000000,824.000000) scale(0.100000,-0.100000)"
fill="#000000" stroke="none">
<rect x="-146.6990051" y="67.5074692" width="7.3986015" height="3.1738243"/>
		<rect x="-154.5771179" y="88.9530258" width="23.1538467" height="7.4075923"/>
		<rect x="-155.5001984" y="73.2886887" width="25" height="10.5054951"/>
<path d="M2270 7823 c-149 -25 -289 -133 -352 -271 -24 -53 -32 -86 -36 -154
-8 -140 30 -246 124 -347 l54 -59 -30 -133 c-17 -74 -39 -174 -50 -224 -10
-49 -33 -151 -50 -225 -17 -74 -39 -175 -50 -225 -10 -49 -33 -151 -50 -225
-17 -74 -39 -175 -50 -225 -11 -49 -44 -200 -74 -334 -31 -135 -55 -245 -53
-246 11 -8 278 -65 301 -65 9 0 18 18 25 48 6 26 22 97 35 157 36 159 86 384
231 1040 14 61 36 160 49 220 14 61 34 155 46 209 29 134 35 146 63 146 37 0
136 37 189 71 114 73 196 212 205 346 3 44 0 102 -6 132 -25 118 -105 232
-209 298 -83 53 -218 82 -312 66z m127 -268 c80 -24 143 -108 143 -190 0 -142
-162 -241 -288 -176 -162 83 -140 320 35 367 61 16 52 16 110 -1z"/>
<path d="M956 2038 c-6 -23 -49 -221 -59 -275 -10 -51 -11 -53 -44 -53 -67 0
-189 -32 -268 -70 -136 -65 -239 -168 -305 -305 -92 -188 -91 -397 2 -585 33
-68 59 -102 127 -170 139 -138 278 -195 471 -194 230 2 425 108 552 303 72
110 101 210 102 346 1 127 -16 203 -69 311 -39 81 -137 193 -214 245 -28 19
-51 41 -51 49 0 8 7 39 15 69 25 96 48 222 40 229 -4 4 -31 6 -61 5 -29 -1
-56 2 -59 8 -9 13 -21 11 -39 -7 -15 -14 -16 -14 -16 5 0 14 -5 19 -15 15 -8
-4 -17 1 -21 10 -5 12 -10 14 -19 6 -10 -9 -12 -7 -9 7 4 12 -5 26 -26 41 -22
16 -31 19 -34 10z m-181 -799 c-40 -170 -42 -209 -14 -258 26 -47 49 -65 104
-80 57 -16 117 2 158 48 34 38 54 101 87 274 6 31 15 57 20 57 15 0 69 -95 81
-143 17 -70 7 -184 -21 -243 -31 -63 -101 -133 -164 -164 -66 -31 -181 -39
-257 -16 -64 19 -142 75 -181 131 -86 125 -78 311 19 424 40 47 96 86 152 106
32 11 36 10 39 -5 2 -10 -9 -69 -23 -131z"/>
<path d="M7395 1694 c-140 -31 -275 -113 -372 -228 -40 -47 -103 -156 -118
-203 l-6 -23 170 0 171 0 39 43 c22 24 66 56 98 73 53 26 67 29 158 29 118 0
171 -20 245 -95 75 -74 95 -127 95 -245 0 -118 -21 -171 -95 -245 -74 -74
-127 -95 -245 -95 -119 0 -168 19 -249 97 l-50 48 -169 0 -168 0 6 -22 c15
-48 78 -157 118 -205 263 -312 727 -321 1003 -20 113 124 168 269 169 447 0
183 -61 327 -194 461 -126 126 -263 186 -441 194 -64 3 -118 0 -165 -11z"/>
<rect x="-151.9607391" y="71.7052689" fill="#222222" width="17.9220791" height="26.5964031"/>
		<rect x="-144.2524414" y="75.9809952" fill="#FFFFFF" width="2.5044956" height="27.5744247"/>
		<path d="M-141.3939972,103.9109268h-3.2135773V75.6276855h3.2135773V103.9109268z M-143.8993073,103.202652h1.7970428V76.3359604
			h-1.7970428V103.202652z"/>
		<rect x="-148.3223724" y="69.8651123" fill="#FFFFFF" width="10.6443558" height="9.87113"/>
		<path d="M-137.3238373,80.0905075h-11.3529053V69.5107574h11.3529053V80.0905075z M-147.9684753,79.3822327h9.9363556v-9.1632004
			h-9.9363556V79.3822327z"/>
</g>
</svg>
