<?xml version="1.0" standalone="no"?>
<!DOCTYPE svg PUBLIC "-//W3C//DTD SVG 20010904//EN"
 "http://www.w3.org/TR/2001/REC-SVG-20010904/DTD/svg10.dtd">
<svg version="1.0" xmlns="http://www.w3.org/2000/svg"
 width="1280.000000pt" height="263.000000pt" viewBox="0 0 1280.000000 263.000000"
 preserveAspectRatio="xMidYMid meet">
<metadata>
Created by potrace 1.16, written by Peter Selinger 2001-2019
</metadata>
<g transform="translate(0.000000,263.000000) scale(0.100000,-0.100000)"
fill="#000000" stroke="none">
<path d="M7475 2326 c-112 -52 -192 -174 -202 -308 -3 -41 -1 -90 5 -112 l11
-39 -32 30 c-53 51 -203 152 -275 186 -62 30 -75 32 -172 32 -87 0 -113 -4
-154 -23 -47 -21 -48 -23 -42 -54 16 -75 26 -157 26 -224 l0 -71 58 -21 c31
-11 94 -32 139 -47 129 -41 200 -112 264 -262 31 -72 34 -86 34 -183 0 -58 -6
-137 -13 -176 -11 -61 -21 -80 -65 -136 -72 -91 -128 -135 -195 -154 -103 -30
-128 -48 -147 -105 -15 -44 -16 -74 -10 -206 7 -148 8 -155 31 -170 22 -14 28
-14 74 6 28 12 89 35 138 52 48 17 103 43 122 58 19 15 62 46 95 68 62 42 163
142 217 217 92 126 163 327 174 496 4 57 0 99 -19 178 l-24 102 36 0 c100 0
235 65 326 156 64 64 133 181 154 262 l12 42 263 0 262 0 92 -332 92 -333
-124 -375 -124 -375 -109 -5 c-60 -3 -118 -11 -130 -18 -55 -31 -74 -141 -33
-182 18 -18 33 -20 193 -20 l173 0 26 28 c21 21 72 168 237 672 115 355 216
662 223 683 12 33 21 41 72 62 74 30 122 68 163 129 31 46 33 46 39 22 3 -14
3 -49 0 -78 -4 -29 -11 -330 -15 -668 -5 -338 -12 -650 -16 -692 -9 -86 3
-130 39 -151 13 -7 83 -13 177 -15 l156 -4 26 31 c35 42 42 100 22 189 -16 67
-16 80 0 170 14 84 15 185 13 758 -3 635 -4 663 -22 683 -18 19 -30 21 -150
21 -72 0 -145 -4 -163 -9 l-32 -9 -11 51 c-15 70 -51 128 -101 163 -57 39
-172 47 -242 16 -173 -76 -263 -307 -188 -478 12 -27 31 -58 42 -70 19 -20 19
-21 -3 -92 -11 -40 -23 -71 -25 -69 -1 2 -32 109 -68 238 -45 159 -73 241 -87
256 -21 23 -26 23 -232 23 -116 0 -309 3 -428 7 l-217 6 -6 28 c-11 50 -62
114 -114 142 -66 36 -163 38 -236 3z m150 -161 c27 -12 28 -13 7 -14 -72 -3
-125 -59 -125 -133 0 -54 25 -87 73 -94 36 -6 39 -8 23 -20 -31 -23 -78 -27
-112 -10 -101 53 -69 234 49 279 25 9 54 7 85 -8z m1576 -21 c51 -49 51 -134
1 -194 l-29 -33 5 60 c5 75 -15 103 -76 103 -48 0 -79 -22 -103 -74 l-19 -41
0 45 c0 57 34 114 86 147 48 30 95 25 135 -13z m-1321 -249 c-55 -145 -172
-245 -311 -264 -46 -6 -67 -14 -80 -30 l-18 -22 -16 37 c-8 20 -15 39 -15 42
0 2 -15 26 -34 52 l-34 47 36 -19 c45 -23 141 -24 205 -2 56 19 129 81 163
140 24 41 29 44 70 44 42 0 43 -1 34 -25z"/>
<path d="M656 2121 c-38 -11 -102 -36 -142 -56 -63 -31 -82 -47 -133 -112
-139 -178 -181 -342 -131 -506 41 -131 126 -225 270 -297 105 -53 190 -78 449
-131 355 -73 437 -104 476 -180 39 -75 -1 -128 -144 -189 -55 -23 -107 -47
-116 -54 -14 -10 -17 -34 -18 -145 l-2 -133 29 -25 c21 -18 36 -23 55 -19 14
4 76 11 136 17 131 13 184 34 250 97 61 60 98 115 145 215 47 100 55 154 36
227 -18 70 -82 254 -101 290 -22 43 -98 104 -183 148 -79 41 -132 54 -612 142
-190 35 -300 101 -300 178 0 37 31 93 62 112 16 9 68 22 116 29 116 16 197 39
218 62 23 26 43 272 24 294 -39 47 -268 68 -384 36z"/>
<path d="M1172 2120 c-13 -12 -27 -33 -33 -47 -13 -34 -11 -228 2 -274 11 -36
15 -39 68 -49 91 -18 134 -37 196 -90 65 -55 119 -76 157 -61 28 11 116 102
151 158 39 62 26 98 -76 196 -63 60 -105 89 -184 129 -91 46 -110 52 -180 56
-70 3 -80 2 -101 -18z"/>
<path d="M3010 2129 c-58 -23 -60 -29 -60 -195 0 -176 -1 -174 88 -199 109
-30 143 -47 201 -100 74 -69 97 -75 156 -40 57 33 171 139 191 176 25 50 18
74 -37 123 -61 55 -263 189 -334 222 -54 26 -157 32 -205 13z"/>
<path d="M4337 2124 c-15 -8 -80 -33 -144 -55 -156 -54 -198 -77 -264 -146
-65 -69 -165 -192 -202 -248 -59 -93 -107 -305 -107 -477 0 -170 16 -234 101
-405 59 -120 80 -153 126 -196 30 -29 81 -78 112 -109 62 -64 169 -119 341
-177 121 -41 190 -50 224 -27 l25 16 -4 187 c-4 160 -8 192 -23 212 -13 17
-52 35 -144 65 -70 23 -139 50 -155 62 -38 28 -116 145 -150 224 -24 57 -27
78 -28 176 0 107 1 112 37 185 47 95 85 139 161 191 34 23 84 59 110 80 31 24
59 38 78 38 18 0 32 7 39 19 6 12 10 93 10 196 l0 175 -24 10 c-49 18 -91 20
-119 4z"/>
<path d="M6255 2081 c-88 -31 -177 -66 -197 -79 -56 -35 -209 -201 -271 -294
-50 -74 -60 -99 -97 -238 -39 -144 -41 -162 -37 -250 8 -145 25 -243 57 -333
45 -121 132 -264 195 -317 16 -14 59 -52 96 -85 114 -102 335 -197 491 -211
l76 -7 13 41 c9 31 9 58 0 117 -6 42 -11 123 -11 180 l0 104 -52 19 c-29 11
-89 31 -133 46 -44 14 -94 35 -112 46 -41 24 -92 94 -140 190 l-38 75 0 135
c1 157 18 216 86 294 41 46 191 156 267 196 24 12 46 30 51 39 5 9 11 77 15
151 3 74 9 152 12 172 l6 37 -53 15 c-29 9 -55 16 -58 15 -3 0 -78 -26 -166
-58z"/>
<path d="M10619 2136 c-2 -2 -90 -9 -196 -15 -147 -9 -228 -9 -342 0 -166 13
-180 10 -218 -48 -22 -34 -25 -201 -4 -281 l13 -53 454 3 c420 3 455 4 471 21
16 16 18 38 18 178 0 157 -1 161 -24 180 -18 15 -39 19 -95 19 -40 0 -75 -2
-77 -4z"/>
<path d="M11100 2118 l-45 -23 -3 -868 c-2 -960 -7 -894 62 -936 28 -17 44
-19 160 -14 123 6 131 7 160 34 l31 27 3 809 c2 444 0 837 -3 871 -9 83 -24
99 -107 106 -206 18 -211 18 -258 -6z"/>
<path d="M11614 2130 c-45 -18 -54 -47 -54 -168 0 -93 4 -120 20 -152 l20 -38
222 -4 c220 -3 224 -3 280 -31 67 -33 123 -91 137 -144 28 -101 1 -213 -62
-252 -29 -17 -56 -20 -277 -24 -150 -2 -259 -9 -282 -16 l-38 -12 0 -179 0
-179 26 -20 c24 -19 40 -21 143 -21 359 1 575 54 707 173 39 36 64 72 112 169
92 183 106 254 77 404 -17 91 -58 183 -119 268 -99 138 -177 195 -305 222 -75
16 -570 19 -607 4z"/>
<path d="M2505 2111 c-40 -6 -84 -33 -234 -142 -119 -86 -272 -283 -319 -409
-45 -122 -53 -367 -18 -561 12 -67 25 -94 101 -220 110 -182 185 -283 233
-312 20 -13 71 -38 112 -56 41 -18 95 -48 118 -66 47 -36 95 -49 220 -59 l73
-6 19 42 c16 35 20 66 20 175 l0 131 -102 56 c-193 106 -309 212 -370 341 -26
56 -28 69 -28 180 0 161 15 216 85 311 53 71 59 76 158 122 56 26 138 65 182
88 l80 40 0 158 c0 203 5 197 -169 194 -66 0 -139 -4 -161 -7z"/>
<path d="M4651 2106 c-29 -8 -58 -20 -63 -27 -10 -15 0 -319 11 -331 3 -4 49
-19 101 -33 129 -35 172 -59 252 -136 121 -117 164 -262 141 -463 -14 -114
-36 -166 -103 -239 -52 -57 -127 -101 -241 -141 -34 -12 -51 -26 -67 -55 -20
-36 -22 -53 -22 -208 l0 -170 41 -16 c40 -16 43 -15 88 7 25 13 71 31 101 41
119 39 311 178 413 300 101 121 188 327 207 492 27 240 -87 563 -261 743 -81
83 -249 197 -330 224 -71 24 -200 29 -268 12z"/>
<path d="M10530 1450 c-30 -4 -184 -8 -342 -9 -287 -1 -287 -1 -300 -23 -9
-16 -14 -80 -16 -200 l-4 -178 29 -11 c20 -8 47 -8 99 1 89 15 259 17 485 6
l175 -8 28 24 c27 23 28 27 33 149 7 156 -6 225 -46 241 -38 15 -79 17 -141 8z"/>
<path d="M3247 820 c-41 -21 -116 -56 -166 -76 -137 -54 -129 -42 -145 -229
-8 -88 -12 -164 -9 -168 11 -19 128 -66 177 -72 64 -8 95 5 236 94 58 37 128
80 155 96 95 54 115 74 115 114 -1 51 -31 113 -81 161 -47 45 -166 120 -191
120 -9 0 -50 -18 -91 -40z"/>
<path d="M12135 815 c-58 -15 -121 -24 -177 -24 l-88 -1 0 -53 c0 -43 6 -61
34 -102 60 -89 263 -311 296 -325 23 -10 78 -12 221 -8 170 5 193 7 217 25 48
36 41 55 -53 156 -48 50 -124 139 -169 197 -110 142 -129 160 -163 159 -15 -1
-68 -12 -118 -24z"/>
<path d="M410 743 c-112 -123 -114 -150 -12 -256 78 -80 137 -121 252 -173 85
-38 85 -38 222 -39 129 0 138 1 161 23 36 34 48 92 45 214 l-3 108 -40 0 c-70
0 -227 38 -292 70 -34 17 -82 51 -107 75 -43 43 -47 45 -104 45 l-60 0 -62
-67z"/>
<path d="M10625 699 c-38 -5 -214 -8 -390 -7 -224 1 -327 -2 -342 -10 -23 -12
-26 -31 -39 -218 -7 -104 8 -149 51 -160 58 -15 824 17 873 36 51 19 62 52 62
185 0 64 -5 125 -10 136 -15 26 -63 49 -102 48 -18 -1 -64 -6 -103 -10z"/>
</g>
</svg>
